HIERARCHY
ROOT Hips
{
  OFFSET -35.4901 99.2528 17.4586
  CHANNELS 6 Xposition Yposition Zposition Zrotation Xrotation Yrotation
  JOINT LeftUpLeg
  {
    OFFSET 8.64259 1.95398 -2.38835
    CHANNELS 3 Zrotation Xrotation Yrotation
    JOINT LeftLeg
    {
      OFFSET 43.7702 0 0
      CHANNELS 3 Zrotation Xrotation Yrotation
      JOINT LeftFoot
      {
        OFFSET 40.6238 0 0
        CHANNELS 3 Zrotation Xrotation Yrotation
        JOINT LeftToeBase
        {
          OFFSET 12.7242 0 0
          CHANNELS 3 Zrotation Xrotation Yrotation
          End Site
          {
            OFFSET 0 0 0
          }
        }
      }
    }
  }
  JOINT RightUpLeg
  {
    OFFSET -8.2249 1.95398 -2.59336
    CHANNELS 3 Zrotation Xrotation Yrotation
    JOINT RightLeg
    {
      OFFSET 43.5653 0 0
      CHANNELS 3 Zrotation Xrotation Yrotation
      JOINT RightFoot
      {
        OFFSET 40.6238 0 0
        CHANNELS 3 Zrotation Xrotation Yrotation
        JOINT RightToeBase
        {
          OFFSET 12.7242 0 0
          CHANNELS 3 Zrotation Xrotation Yrotation
          End Site
          {
            OFFSET 0 0 0
          }
        }
      }
    }
  }
  JOINT Spine
  {
    OFFSET 0.165834 0.87714 6.61349
    CHANNELS 3 Zrotation Xrotation Yrotation
    JOINT Spine1
    {
      OFFSET 7.38963 1.71661e-005 0
      CHANNELS 3 Zrotation Xrotation Yrotation
      JOINT Spine2
      {
        OFFSET 11.9445 1.14441e-005 0
        CHANNELS 3 Zrotation Xrotation Yrotation
        JOINT Spine3
        {
          OFFSET 14.7254 4.19617e-005 0
          CHANNELS 3 Zrotation Xrotation Yrotation
          JOINT Spine4
          {
            OFFSET 10.9679 0 0
            CHANNELS 3 Zrotation Xrotation Yrotation
            JOINT RightShoulder
            {
              OFFSET 2.46616 -1.6653 3.69651
              CHANNELS 3 Zrotation Xrotation Yrotation
              JOINT RightArm
              {
                OFFSET 13.0012 0 0
                CHANNELS 3 Zrotation Xrotation Yrotation
                JOINT RightForeArm
                {
                  OFFSET 28.7848 1.52588e-005 0
                  CHANNELS 3 Zrotation Xrotation Yrotation
                  JOINT RightHand
                  {
                    OFFSET 26.5688 1.52588e-005 0
                    CHANNELS 3 Zrotation Xrotation Yrotation
                    End Site
                    {
                      OFFSET 0 0 0
                    }
                  }
                }
              }
            }
            JOINT LeftShoulder
            {
              OFFSET 2.38034 -1.29275 -3.7523
              CHANNELS 3 Zrotation Xrotation Yrotation
              JOINT LeftArm
              {
                OFFSET 16.3182 6.10351e-005 0
                CHANNELS 3 Zrotation Xrotation Yrotation
                JOINT LeftForeArm
                {
                  OFFSET 27.0901 0 0
                  CHANNELS 3 Zrotation Xrotation Yrotation
                  JOINT LeftHand
                  {
                    OFFSET 24.5451 1.52588e-005 0
                    CHANNELS 3 Zrotation Xrotation Yrotation
                    End Site
                    {
                      OFFSET 0 0 0
                    }
                  }
                }
              }
            }
            JOINT Neck
            {
              OFFSET 5.0226 -0.0266342 0
              CHANNELS 3 Zrotation Xrotation Yrotation
              JOINT Head
              {
                OFFSET 6.69364 2.86102e-005 0
                CHANNELS 3 Zrotation Xrotation Yrotation
                End Site
                {
                  OFFSET 0 0 0
                }
              }
            }
          }
        }
      }
    }
  }
}
MOTION
Frames:	6
Frame Time:	0.0416667
-310.957 85.6166 306.074 93.3968 27.296 84.9031 -168.073 44.9325 90.9858 -67.9639 -0.0954137 -2.22598 78.7656 8.10429 2.91149 28.223 4.34494 -7.19075 170.969 -14.4671 79.1897 -37.5032 -30.0876 -9.55478 77.388 -10.005 -4.36158 42.2934 -3.33332 10.8535 3.98744 8.00306 -89.946 10.9123 7.96383 -0.643788 -0.734489 7.92777 -0.995901 -23.4608 7.7868 1.79451 -3.44815 7.78681 1.79452 95.6799 -14.8941 -99.5652 33.9027 13.0622 -8.23387 -43.2889 -6.01004 -97.3405 -40.2628 1.01436 -11.7915 -84.756 -44.9448 85.9365 -27.0502 47.8847 54.7767 78.9756 -25.2265 -75.7613 24.3365 -2.08493 -12.7572 23.8612 -6.28159 5.31774 -19.5742 -7.3017 -4.12027 
-300.688 86.956 296.799 87.9981 43.3757 89.5245 -178.174 47.3969 89.1705 -41.0228 11.1 -0.785433 67.7427 4.55631 2.83616 29.0868 2.87801 -4.9958 174.384 -16.5237 89.4238 -36.5611 -20.8844 -7.35381 60.4487 0.334219 -3.79291 29.3753 -4.25405 12.0474 2.75336 7.65931 -89.4275 11.5539 5.74528 0.548768 -0.104253 5.7638 0.294514 -22.7302 5.31403 2.25495 -2.71751 5.31404 2.25494 94.3479 -12.544 -104.143 33.6808 19.8013 -8.94689 -45.5482 -4.80975 -101.638 -37.8827 0.97477 -12.5971 -84.4674 -30.224 84.0721 -35.2225 40.1781 54.6215 78.3856 -27.488 -77.512 23.1053 -0.394145 -5.93313 21.7449 -11.1044 -3.6983 -16.8053 -9.21514 -2.69344 
-290.416 87.7573 286.39 89.1501 42.7319 89.1485 -176.943 40.3453 89.6005 -28.0856 11.0457 -2.76955 69.4927 4.86686 -0.0328691 22.923 -1.04028 2.0953 176.414 -18.0762 90.2865 -43.5543 -19.994 -7.22962 64.7191 -2.275 -3.20731 17.651 -3.18725 7.80959 2.85221 7.41258 -89.5268 12.061 5.89426 0.304102 0.403559 5.9019 0.0434644 -22.2298 5.52953 2.06693 -2.21715 5.52952 2.06693 94.4512 -13.2641 -103.526 35.1194 5.60291 -5.01691 -45.7185 0.23155 -100.618 -35.9187 1.52659 -14.5365 -84.7601 -34.9008 84.3008 -35.0835 38.7944 55.9671 79.9104 -28.5665 -77.6212 28.9492 -0.0625141 -4.26825 16.7981 -10.1478 -2.40156 -14.9842 -8.7632 -3.74152 
-281.19 87.2606 276.675 92.6862 42.8714 88.986 -175.794 36.3202 91.3587 -33.7133 8.94978 -3.06696 60.0281 0.51059 1.37009 25.9744 0.316746 -0.290212 175.402 -13.0251 91.3686 -58.8586 -9.33186 -3.3769 70.2156 -5.01522 -1.03943 20.7346 -3.60135 8.84937 2.34214 7.40789 -89.9321 12.076 4.68818 -0.380867 0.413361 4.66689 -0.587297 -22.1877 4.58547 1.0488 -2.17504 4.58546 1.04879 93.3641 -17.7182 -104.347 39.3991 -9.4186 1.46406 -45.4221 2.10583 -92.2311 -34.0407 1.95712 -16.1927 -84.0266 -42.3027 86.7626 -29.5297 34.7258 43.1872 82.2426 -21.6592 -78.3371 25.1211 0.298205 -2.77741 15.0098 -8.00183 -2.06213 -15.441 -7.01728 -2.15707 
-272.705 86.1666 267.515 95.6316 42.5801 84.9459 -171.663 34.6365 88.526 -50.8718 11.7574 -4.01318 72.3003 5.97183 3.87207 13.8877 -0.324368 1.55616 173.8 -0.724918 86.926 -79.3179 -2.87616 -2.12973 77.3887 -9.03155 -3.01327 8.66146 -0.261552 2.48038 1.50484 7.58804 -89.7058 11.6978 3.1312 0.258368 0.0306632 3.13954 0.120159 -22.5314 2.90865 1.18825 -2.51872 2.90866 1.18826 93.3811 -22.9849 -102.229 45.2186 -19.1765 8.27282 -46.9875 -6.53743 -80.9668 -33.1097 1.32678 -14.5834 -83.5619 -49.298 88.3376 -21.7726 26.3937 24.5695 84.7725 -12.2479 -80.9085 23.7912 0.872386 -0.227809 15.3792 -5.33065 -5.24666 -14.8666 -3.87843 0.976257 
-264.875 84.8216 258.932 97.8266 37.8748 77.4625 -167.996 26.2639 84.0307 -58.4789 6.81735 -6.75319 79.7356 9.31599 4.10431 24.2534 2.0496 -2.71724 -179.088 16.1948 81.1913 -94.1622 -0.492545 -2.95384 82.6416 -11.921 -2.95408 12.0141 -1.48625 4.54576 0.972346 7.87747 -88.8352 11.0875 2.47573 2.07409 -0.582565 2.5646 1.9631 -23.1151 1.73817 2.72204 -3.10246 1.7382 2.72204 91.9234 -28.4011 -103.458 46.8538 -13.8948 15.7234 -46.9595 -21.9973 -69.4361 -33.4575 0.427659 -12.3369 -83.7181 -52.8875 88.4793 -15.2178 23.2761 4.03597 88.7102 -6.62786 -81.8765 35.9701 2.2568 2.43323 16.4657 -2.55085 -9.14725 -15.8382 -0.234979 2.86462 
